<?xml version="1.0" encoding="UTF-8"?>
<svg xmlns="http://www.w3.org/2000/svg" width="310" height="220" viewBox="0 0 310 220">
  <style>
    .crate { fill: #e3f2fd; stroke: #1976d2; stroke-width: 2; }
    .module { fill: #fff3e0; stroke: #f57c00; stroke-width: 1; }
    .label { font-family: monospace; font-size: 12px; }
    .tree-line { stroke: #666; stroke-width: 1; }
    .dep-arc { fill: none; stroke: #9c27b0; stroke-width: 1.5; }
    .dep-arrow { fill: #9c27b0; }
    .cycle-arc { fill: none; stroke: #f44336; stroke-width: 1.5; }
    .cycle-arrow { fill: #f44336; }
  </style>
  <g id="tree-lines">
    <line class="tree-line" x1="50" y1="40" x2="50" y2="30"/>
    <line class="tree-line" x1="50" y1="30" x2="40" y2="30"/>
    <line class="tree-line" x1="50" y1="40" x2="50" y2="60"/>
    <line class="tree-line" x1="50" y1="60" x2="40" y2="60"/>
    <line class="tree-line" x1="50" y1="40" x2="50" y2="90"/>
    <line class="tree-line" x1="50" y1="90" x2="40" y2="90"/>
    <line class="tree-line" x1="50" y1="40" x2="50" y2="120"/>
    <line class="tree-line" x1="50" y1="120" x2="40" y2="120"/>
    <line class="tree-line" x1="50" y1="40" x2="50" y2="150"/>
    <line class="tree-line" x1="50" y1="150" x2="40" y2="150"/>
  </g>
  <g id="nodes">
    <rect class="module" x="40" y="20" width="80" height="20" rx="2"/>
    <text class="label" x="50" y="34">layout</text>
    <rect class="module" x="40" y="50" width="80" height="20" rx="2"/>
    <text class="label" x="50" y="64">render</text>
    <rect class="module" x="40" y="80" width="80" height="20" rx="2"/>
    <text class="label" x="50" y="94">analyze</text>
    <rect class="module" x="40" y="110" width="80" height="20" rx="2"/>
    <text class="label" x="50" y="124">cli</text>
    <rect class="module" x="40" y="140" width="80" height="20" rx="2"/>
    <text class="label" x="50" y="154">graph</text>
    <rect class="crate" x="20" y="170" width="120" height="24" rx="3"/>
    <text class="label" x="30" y="186">cargo-arc</text>
  </g>
  <g id="dependencies">
  </g>
</svg>
